<svg width="331" height="36" viewBox="0 0 331 36" fill="none" xmlns="http://www.w3.org/2000/svg">
<path d="M119 18.6072C119 8.88277 110.046 1 99.0025 1C87.9539 1.00219 79 8.88277 79 18.6094C79 27.3955 86.3141 34.6789 95.8729 36V23.6969H90.7985V18.6094H95.8779V14.727C95.8779 10.3154 98.865 7.87883 103.432 7.87883C105.622 7.87883 107.909 8.22222 107.909 8.22222V12.5529H105.387C102.905 12.5529 102.13 13.9112 102.13 15.3045V18.6072H107.674L106.789 23.6947H102.127V35.9978C111.686 34.6767 119 27.3933 119 18.6072Z" fill="white"/>
<path d="M313.269 0.166935C310.531 0.624194 307.881 1.91613 305.631 4.07177L310.469 9.68952C312.206 7.09113 313.175 3.79597 313.269 0.166935V0.166935ZM315.5 15.5323L325.369 4.07177C322.719 1.53145 319.519 0.18871 316.275 0C316.2 4.6379 314.931 8.87661 312.606 12.1718L315.5 15.5323ZM303.506 6.53952C301.65 9.15242 300.538 12.2298 300.144 15.4089C303.269 15.3 306.112 14.175 308.344 12.1573L303.506 6.53952ZM320.519 21.3605C323.35 18.6677 327 17.1944 331 17.1C330.838 13.3331 329.681 9.61694 327.494 6.53952L317.625 18L320.519 21.3605V21.3605ZM315.5 20.4677L305.631 31.9282C308.281 34.4613 311.481 35.8113 314.725 36C314.806 31.3548 316.075 27.1161 318.394 23.8282L315.5 20.4677ZM327.494 29.4605C329.35 26.8476 330.463 23.7702 330.856 20.5911C327.725 20.7073 324.888 21.8323 322.656 23.8427L327.494 29.4605ZM310.481 14.6395C307.644 17.3395 303.994 18.8202 300 18.9C300.162 22.6669 301.319 26.3831 303.506 29.4605L313.375 18L310.481 14.6395ZM317.731 35.8331C320.469 35.3758 323.119 34.0839 325.369 31.9282L320.531 26.3105C318.8 28.9016 317.831 32.204 317.731 35.8331Z" fill="white"/>
<path d="M201 5.15756C199.235 5.84099 197.314 6.33286 195.335 6.52443C197.39 5.42905 198.928 3.69854 199.662 1.65757C197.734 2.6868 195.622 3.40851 193.42 3.7907C192.5 2.90755 191.387 2.204 190.15 1.72388C188.913 1.24375 187.58 0.99735 186.233 1.00002C180.781 1.00002 176.397 4.966 176.397 9.83286C176.397 10.5163 176.489 11.1997 176.639 11.8573C168.477 11.4741 161.197 7.97413 156.357 2.61541C155.475 3.96733 155.013 5.50666 155.019 7.07324C155.019 10.1383 156.755 12.841 159.403 14.4305C157.843 14.3753 156.319 13.9904 154.956 13.307V13.4157C154.956 17.7079 158.336 21.2648 162.841 22.0829C161.995 22.2801 161.125 22.381 160.251 22.3831C159.611 22.3831 159.005 22.3262 158.394 22.2485C159.64 25.7485 163.268 28.2907 167.589 28.3735C164.208 30.75 159.974 32.1479 155.377 32.1479C154.552 32.1479 153.79 32.122 153 32.0392C157.361 34.5503 162.535 36 168.108 36C186.198 36 196.097 22.5488 196.097 10.8735C196.097 10.4904 196.097 10.1073 196.068 9.72413C197.983 8.46599 199.662 6.90756 201 5.15756Z" fill="white"/>
<path d="M247.744 16.0925C247.744 16.0925 251.434 15.6915 251.434 9.38546C251.434 3.07121 248.415 0 244.588 0H232V35.2562H244.588C244.588 35.2562 252.275 35.608 252.275 24.8479C252.273 24.8451 252.608 16.0925 247.744 16.0925V16.0925ZM237.547 6.26243H244.588C244.588 6.26243 246.3 6.26243 246.3 9.92824C246.3 13.5995 245.294 14.1314 244.151 14.1314H237.547V6.26243ZM244.231 28.9883H237.547V19.5646H244.588C244.588 19.5646 247.139 19.5155 247.139 24.406C247.139 28.53 245.234 28.9583 244.231 28.9883V28.9883ZM262.522 8.96542C253.217 8.96542 253.224 22.5131 253.224 22.5131C253.224 22.5131 252.589 35.9899 262.522 35.9899C262.522 35.9899 270.798 36.6827 270.798 26.6153H266.542C266.542 26.6153 266.682 30.4093 262.664 30.4093C262.664 30.4093 258.405 30.8239 258.405 24.2724H270.932C270.934 24.2696 272.315 8.96542 262.522 8.96542V8.96542ZM266.308 19.5646H258.362C258.362 19.5646 258.881 14.1314 262.618 14.1314C266.355 14.1314 266.308 19.5646 266.308 19.5646V19.5646ZM267.297 2.0702H257.316V6.4179H267.297V2.0702Z" fill="white"/>
<path fill-rule="evenodd" clip-rule="evenodd" d="M12.0484 1.105C14.2345 1.01909 14.9315 1 20.5 1C26.0685 1 26.7655 1.02068 28.9497 1.105C31.1339 1.18932 32.6248 1.48682 33.9294 1.91795C35.2954 2.35864 36.5347 3.0475 37.5597 3.93841C38.6034 4.81182 39.4085 5.86818 39.9228 7.03591C40.4297 8.14955 40.7764 9.42227 40.877 11.2836C40.9776 13.153 41 13.748 41 18.5C41 23.2536 40.9758 23.8486 40.877 25.7148C40.7782 27.5761 40.4297 28.8489 39.9228 29.9625C39.4084 31.1304 38.602 32.1885 37.5597 33.0632C36.5347 33.9541 35.2954 34.6414 33.9294 35.0805C32.6248 35.5132 31.1339 35.8091 28.9535 35.895C26.7655 35.9809 26.0685 36 20.5 36C14.9315 36 14.2345 35.9793 12.0484 35.895C9.86795 35.8107 8.37705 35.5132 7.0725 35.0805C5.70444 34.6413 4.46494 33.9529 3.44027 33.0632C2.39734 32.1892 1.59027 31.1316 1.07532 29.9641C0.570273 28.8505 0.223636 27.5777 0.123 25.7164C0.0223636 23.847 0 23.252 0 18.5C0 13.7464 0.0242272 13.1514 0.123 11.2868C0.221773 9.42227 0.570273 8.14955 1.07532 7.03591C1.59103 5.86831 2.39872 4.81073 3.44214 3.93682C4.46535 3.04671 5.70361 2.35775 7.07064 1.91795C8.37518 1.48682 9.86609 1.19091 12.0465 1.105H12.0484ZM28.7839 4.255C26.622 4.17068 25.9735 4.15318 20.5 4.15318C15.0265 4.15318 14.378 4.17068 12.2161 4.255C10.2165 4.33295 9.13182 4.61773 8.40873 4.85795C7.45268 5.17614 6.76873 5.55318 6.05123 6.16568C5.37108 6.73054 4.84765 7.41818 4.51932 8.17818C4.23791 8.79545 3.90432 9.72136 3.813 11.4284C3.71423 13.2739 3.69373 13.8275 3.69373 18.5C3.69373 23.1725 3.71423 23.7261 3.813 25.5716C3.90432 27.2786 4.23791 28.2045 4.51932 28.8218C4.84732 29.5807 5.371 30.2695 6.05123 30.8343C6.71282 31.415 7.51977 31.862 8.40873 32.142C9.13182 32.3823 10.2165 32.667 12.2161 32.745C14.378 32.8293 15.0246 32.8468 20.5 32.8468C25.9754 32.8468 26.622 32.8293 28.7839 32.745C30.7835 32.667 31.8682 32.3823 32.5913 32.142C33.5473 31.8239 34.2313 31.4468 34.9488 30.8343C35.629 30.2695 36.1527 29.5807 36.4807 28.8218C36.7621 28.2045 37.0957 27.2786 37.187 25.5716C37.2858 23.7261 37.3063 23.1725 37.3063 18.5C37.3063 13.8275 37.2858 13.2739 37.187 11.4284C37.0957 9.72136 36.7621 8.79545 36.4807 8.17818C36.108 7.36205 35.6663 6.77818 34.9488 6.16568C34.287 5.58511 33.4815 5.13829 32.5913 4.85795C31.8682 4.61773 30.7835 4.33295 28.7839 4.255V4.255ZM17.8816 23.8948C19.3439 24.4144 20.9722 24.4845 22.4884 24.0932C24.0045 23.7018 25.3145 22.8733 26.1945 21.749C27.0746 20.6248 27.4701 19.2746 27.3135 17.929C27.157 16.5835 26.4581 15.3261 25.3361 14.3716C24.6209 13.7614 23.7562 13.2942 22.8041 13.0036C21.852 12.713 20.8363 12.6063 19.83 12.691C18.8238 12.7757 17.8521 13.0498 16.9848 13.4936C16.1176 13.9374 15.3764 14.5398 14.8146 15.2575C14.2528 15.9752 13.8844 16.7902 13.736 17.644C13.5875 18.4978 13.6626 19.3691 13.9559 20.1951C14.2492 21.0212 14.7534 21.7814 15.4323 22.4211C16.1111 23.0609 16.9476 23.5642 17.8816 23.8948ZM13.0492 12.1395C14.0276 11.3043 15.1892 10.6417 16.4676 10.1897C17.7461 9.73762 19.1163 9.50496 20.5 9.50496C21.8837 9.50496 23.2539 9.73762 24.5324 10.1897C25.8108 10.6417 26.9724 11.3043 27.9508 12.1395C28.9293 12.9748 29.7054 13.9664 30.235 15.0577C30.7645 16.1491 31.037 17.3188 31.037 18.5C31.037 19.6812 30.7645 20.8509 30.235 21.9423C29.7054 23.0336 28.9293 24.0252 27.9508 24.8605C25.9747 26.5474 23.2946 27.495 20.5 27.495C17.7054 27.495 15.0253 26.5474 13.0492 24.8605C11.0731 23.1736 9.96295 20.8856 9.96295 18.5C9.96295 16.1144 11.0731 13.8264 13.0492 12.1395V12.1395ZM33.374 10.8445C33.6165 10.6493 33.8106 10.4145 33.9448 10.154C34.0791 9.89361 34.1508 9.61281 34.1556 9.3283C34.1605 9.04378 34.0984 8.76133 33.9731 8.49765C33.8478 8.23398 33.6618 7.99445 33.4261 7.79324C33.1904 7.59204 32.9098 7.43325 32.6009 7.32628C32.2921 7.21931 31.9612 7.16633 31.6279 7.17047C31.2946 7.17462 30.9657 7.23581 30.6606 7.35043C30.3555 7.46504 30.0805 7.63074 29.8517 7.83773C29.4069 8.24027 29.1634 8.77497 29.1728 9.3283C29.1823 9.88163 29.4439 10.41 29.9023 10.8013C30.3607 11.1926 30.9797 11.416 31.6279 11.4241C32.2761 11.4322 32.9024 11.2243 33.374 10.8445V10.8445Z" fill="white"/>
</svg>
